<?xml version="1.0" standalone="no"?>
<!DOCTYPE svg PUBLIC "-//W3C//DTD SVG 20010904//EN"
 "http://www.w3.org/TR/2001/REC-SVG-20010904/DTD/svg10.dtd">
<svg version="1.0" xmlns="http://www.w3.org/2000/svg"
 width="512.000000pt" height="512.000000pt" viewBox="0 0 512.000000 512.000000"
 preserveAspectRatio="xMidYMid meet">
<metadata>
Created by potrace 1.14, written by Peter Selinger 2001-2017
</metadata>
<g transform="translate(0.000000,512.000000) scale(0.100000,-0.100000)"
fill="#000000" stroke="none">
<path d="M2517 4644 c-1 -1 -47 -4 -102 -8 -609 -38 -1176 -372 -1514 -891
-194 -299 -301 -642 -315 -1013 -4 -81 5 -104 44 -124 29 -15 36 -15 60 -3 36
19 42 35 45 126 21 556 292 1076 727 1397 202 148 450 268 638 307 8 2 38 9
65 15 131 31 180 35 385 35 216 0 305 -10 470 -54 234 -63 486 -191 675 -344
65 -53 197 -185 261 -262 171 -203 320 -514 370 -769 26 -132 31 -174 39 -310
5 -88 21 -135 48 -137 6 0 21 -2 31 -4 11 -2 30 8 46 23 25 26 27 32 24 112
-20 646 -367 1254 -910 1596 -230 144 -504 247 -744 280 -25 3 -48 8 -51 10
-9 5 -287 22 -292 18z"/>
<path d="M2408 4315 c-2 -2 -28 -6 -58 -9 -30 -3 -67 -8 -82 -11 -16 -3 -38
-7 -50 -9 -48 -8 -152 -38 -221 -62 -391 -140 -727 -435 -912 -804 -68 -136
-134 -329 -151 -440 -3 -19 -7 -41 -9 -48 -3 -7 -8 -57 -11 -110 -4 -53 -8
-110 -9 -127 -7 -91 99 -136 138 -58 8 15 15 59 15 97 2 85 14 177 37 281 26
117 111 330 167 420 136 213 256 341 441 469 187 130 404 215 637 251 86 13
356 13 435 0 516 -86 951 -425 1149 -893 44 -106 91 -266 101 -346 3 -22 8
-58 11 -78 3 -21 7 -72 9 -115 3 -57 8 -81 22 -95 30 -30 68 -32 99 -4 25 21
28 30 28 87 -2 399 -179 819 -471 1115 -316 321 -731 494 -1180 492 -73 0
-133 -2 -135 -3z"/>
<path d="M2477 3984 c-1 -1 -29 -5 -62 -8 -93 -10 -104 -12 -192 -34 -466
-122 -826 -486 -942 -951 -25 -100 -40 -221 -38 -299 2 -51 6 -66 22 -75 50
-30 94 -23 113 17 6 11 13 62 17 111 20 295 136 549 345 755 180 179 398 285
670 326 51 8 252 7 290 -1 14 -3 41 -8 60 -11 300 -51 581 -236 755 -499 109
-165 164 -318 190 -530 2 -16 4 -53 4 -81 1 -62 22 -93 68 -100 26 -4 38 0 59
21 27 27 27 27 20 138 -4 61 -9 113 -11 116 -1 3 -6 22 -9 41 -17 107 -81 284
-138 383 -15 26 -28 50 -28 53 0 14 -115 161 -180 227 -247 258 -570 395 -943
401 -38 1 -69 0 -70 0z"/>
<path d="M2360 3650 c-212 -45 -377 -135 -522 -282 -175 -178 -289 -453 -283
-680 3 -75 48 -110 106 -81 31 15 40 32 44 93 12 150 35 240 92 355 80 161
216 295 390 384 151 76 388 100 562 55 378 -96 623 -396 646 -791 3 -48 8 -62
30 -80 33 -29 65 -29 96 -2 20 17 24 30 23 77 -3 395 -264 765 -639 905 -62
23 -114 38 -180 54 -11 2 -78 6 -150 8 -100 3 -150 -1 -215 -15z"/>
<path d="M2518 3295 c-2 -2 -25 -5 -53 -8 -283 -29 -522 -291 -534 -584 -2
-53 1 -64 21 -82 16 -16 33 -21 57 -19 46 4 68 38 74 113 19 244 227 431 477
427 43 0 95 -8 120 -17 25 -9 54 -19 66 -22 31 -7 127 -83 169 -133 33 -39 67
-103 88 -163 4 -9 9 -39 12 -65 11 -94 16 -112 38 -127 30 -21 69 -19 95 5 27
26 30 105 7 195 -58 230 -217 392 -446 458 -47 14 -183 29 -191 22z"/>
<path d="M563 2440 c-17 -5 -18 -19 -19 -177 0 -149 2 -173 16 -174 8 -1 328
-2 712 -3 383 0 699 -4 703 -7 3 -4 7 -364 8 -800 l2 -794 575 0 575 0 2 745
c2 410 3 770 3 800 l0 56 703 -1 c386 0 709 1 717 3 13 3 15 29 15 172 0 92
-3 172 -8 176 -8 8 -3974 12 -4004 4z"/>
</g>
</svg>
