<?xml version="1.0" encoding="UTF-8" standalone="no"?>
<!-- Created with Inkscape (http://www.inkscape.org/) -->

<svg
   width="512"
   height="512"
   viewBox="0 0 135.46666 135.46667"
   version="1.1"
   id="svg5"
   xmlns="http://www.w3.org/2000/svg"
   xmlns:svg="http://www.w3.org/2000/svg">
  <defs
     id="defs2" />
  <g
     id="layer1">
    <text
       xml:space="preserve"
       style="font-weight:bold;font-size:118.902px;line-height:1.25;font-family:sans-serif;-inkscape-font-specification:'sans-serif Bold';fill:#fffffe;fill-opacity:1;stroke:#fffffe;stroke-width:0.619347;stroke-linecap:round;stroke-linejoin:round;stroke-miterlimit:4;stroke-dasharray:none;stroke-opacity:1"
       x="6.6689568"
       y="201.95857"
       id="text1310"
       transform="scale(1.6483705,0.60665973)"><tspan
         id="tspan1308"
         style="font-size:118.902px;fill:#fffffe;fill-opacity:1;stroke:#fffffe;stroke-width:0.619347;stroke-linecap:round;stroke-linejoin:round;stroke-miterlimit:4;stroke-dasharray:none;stroke-opacity:1"
         x="6.6689568"
         y="201.95857">T</tspan></text>
    <g
       id="g4663"
       transform="translate(-2.1030784e-4,-20.019279)">
      <path
         style="fill:none;stroke:#fffffe;stroke-width:3.96875;stroke-linecap:round;stroke-miterlimit:4;stroke-dasharray:none;stroke-opacity:1"
         id="path3328"
         d="m -52.779875,-84.951317 a 14.473665,14.473665 0 0 1 -7.241938,12.537508 14.473665,14.473665 0 0 1 -14.478767,-0.0088 14.473665,14.473665 0 0 1 -7.226614,-12.546346"
         transform="rotate(179.84496)" />
      <path
         style="fill:none;stroke:#fffffe;stroke-width:3.96875;stroke-linecap:round;stroke-miterlimit:4;stroke-dasharray:none;stroke-opacity:1"
         id="path3328-3"
         transform="rotate(179.84496)"
         d="m -42.873402,-84.924507 a 24.380215,24.380215 0 0 1 -12.198707,21.118848 24.380215,24.380215 0 0 1 -24.388808,-0.0149 24.380215,24.380215 0 0 1 -12.172896,-21.133736" />
      <path
         style="fill:none;stroke:#fffffe;stroke-width:3.96875;stroke-linecap:round;stroke-miterlimit:4;stroke-dasharray:none;stroke-opacity:1"
         id="path3328-3-6"
         transform="rotate(179.84496)"
         d="m -34.581894,-84.902069 a 32.671791,32.671791 0 0 1 -16.34742,28.301251 32.671791,32.671791 0 0 1 -32.683307,-0.01997 32.671791,32.671791 0 0 1 -16.312831,-28.321203" />
      <path
         style="fill:none;stroke:#fffffe;stroke-width:3.96875;stroke-linecap:round;stroke-miterlimit:4;stroke-dasharray:none;stroke-opacity:1"
         id="path3328-3-6-7"
         transform="rotate(179.84496)"
         d="m -25.721657,-84.87809 a 41.532097,41.532097 0 0 1 -20.780698,35.976305 41.532097,41.532097 0 0 1 -41.546736,-0.02538 41.532097,41.532097 0 0 1 -20.736729,-36.001667" />
      <path
         style="fill:none;stroke:#fffffe;stroke-width:3.96875;stroke-linecap:round;stroke-miterlimit:4;stroke-dasharray:none;stroke-opacity:1"
         id="path3328-3-6-7-5"
         transform="rotate(179.84496)"
         d="m -17.220333,-84.855087 a 50.033482,50.033482 0 0 1 -25.034389,43.34045 50.033482,50.033482 0 0 1 -50.051118,-0.03057 50.033482,50.033482 0 0 1 -24.98142,-43.371003" />
    </g>
  </g>
</svg>
